<?xml version="1.0" encoding="utf-8"?>
<!-- Generator: Adobe Illustrator 21.1.0, SVG Export Plug-In . SVG Version: 6.00 Build 0)  -->
<svg version="1.1" xmlns="http://www.w3.org/2000/svg" xmlns:xlink="http://www.w3.org/1999/xlink" x="0px" y="0px"
	 viewBox="0 0 841.9 595.3" style="enable-background:new 0 0 841.9 595.3;" xml:space="preserve">
<style type="text/css">
	.st0{fill:none;stroke:#A5A5A5;stroke-miterlimit:10;}
	.st1{fill:none;stroke:#848484;stroke-miterlimit:10;}
</style>
<g id="Layer_1">
	
		<image style="display:none;overflow:visible;" width="1132" height="1600" xlink:href="../../../../practical assignment castle/0ee246f5-ef9f-4d03-bdfd-97d9b3e57ab9.jpeg"  transform="matrix(0.6858 0 0 0.6858 0 -441.2025)">
	</image>
</g>
<g id="Layer_2">
	<polygon class="st0" points="41.7,181.5 260.4,533.1 726.5,524.2 726.5,475.5 716.9,475.5 716.9,435.6 752.4,431.9 751.8,426.6 
		758,426.9 764,421.7 765.1,415.1 762.8,409.3 757.2,406.5 751.3,407.7 751.1,399.4 759,399.4 750.9,44.8 175.4,56.6 175.4,60.5 
		143.4,60.5 143.4,98.5 120.6,143.1 86.6,164.4 81,157.8 	"/>
	<polygon class="st0" points="267.1,472.1 257.8,479.5 260.8,484.5 270.8,477.2 	"/>
	<polygon class="st0" points="252.7,482.6 256.2,488.1 252.7,490.7 255.4,496.1 253.6,497.4 245,484.5 247.1,483.2 248.8,485.6 	"/>
	<polygon class="st0" points="257.8,504 266.1,517.9 272.2,521.2 300,519.9 300,513.6 305.9,513.6 305.9,517.3 304.3,517.3 
		304.4,519.9 312.8,519.9 312.8,499.8 305.7,499.8 305.6,510.5 299.6,510.5 299.6,504.1 292.6,499.8 290.4,504.2 292.5,506.7 
		292.9,510.5 291.1,514.2 287.7,516.2 282.1,516.2 275.5,508.3 270.3,508.3 267.2,514.5 259.6,503.2 	"/>
	<polygon class="st0" points="276.7,498.5 278.9,503.3 287.3,503.3 288.2,497.4 279.3,492.9 	"/>
	<polygon class="st0" points="321.1,479.8 321.1,485.4 324.3,485.4 324.3,516.8 322.7,516.8 322.7,518.5 327.6,518.5 327.6,516.8 
		325.7,516.8 326.1,484.5 344.7,484.5 344.7,517 334.4,517 334.4,518.5 364.8,518.5 364.8,516.1 351.5,515.8 351.8,484.5 
		366.8,484.5 366.8,479.3 	"/>
	<polygon class="st0" points="379.4,477.9 379.4,483.3 383.7,483.3 383.7,514.9 371.2,514.9 371.2,517.7 400.9,517.7 400.9,514.8 
		390.6,514.6 390.6,482.6 394.5,482.6 394.2,477.9 	"/>
	<polygon class="st0" points="401.6,477.9 431.8,477.9 431.8,483.1 428.2,483.1 427.8,517.7 411.2,517.7 411.2,515 420.9,515 
		420.9,483.6 401.6,483 	"/>
	<polygon class="st0" points="671.9,513.2 685.5,513.2 685.5,514.4 689.1,514.6 689.1,512.9 692.1,513 692.1,486.2 686,486.2 
		686.4,511 671.9,511.1 	"/>
	<polygon class="st0" points="162.3,198.1 313.5,433 504,428.7 504,419.2 497.1,419.2 497.1,423.8 467.3,424.4 466.3,370.7 
		496.3,369.8 496.3,397 502.6,397 502.6,367.5 445.2,368.4 445.2,370.3 457.1,370.3 457.9,424.4 427.8,424.8 427.1,371.2 
		438.1,371.2 438.1,369.1 407,368.7 407,371 418.9,371 420.3,425.1 389.5,425 388.2,371.5 400.4,371 400.4,369 369.3,369.6 
		369.3,371.7 381.5,371.7 383.2,426 351.6,426 350.3,372 363.1,372 363.1,370 343.2,370.7 340.2,372.7 343.9,377.8 345.3,427.2 
		322.6,427.2 322.2,414.7 312.2,422.1 301.6,404.6 337.6,380.9 330.3,363.2 328,363.2 332.3,376.5 298,399.1 281,373.4 320.9,347.6 
		325.7,357.9 327.6,357.9 323.2,346.4 311.1,329.1 309.2,330.2 316.8,341.6 277.4,367.4 260.2,340 299.1,314.5 306.5,325.4 
		308.2,324.1 290.2,295.9 288.3,297 295.8,308.5 255.9,334 238.7,307.8 277.9,281.9 284.3,290.5 286.2,289.9 269.5,263.2 
		267.5,264.3 274.3,275.7 234.6,301.1 217.3,273.4 256.7,247.8 263.7,258.2 265.8,256.9 248.8,229.7 246.8,230.7 254.1,242.2 
		213.6,267.3 197.2,241.9 213.1,230.7 208.7,224.7 192.7,235.4 175.8,208.3 210,186.1 215.7,196 223,190.5 214.9,177.5 201.3,170.3 
		197.5,177.5 208.3,183 186,196 173,188.8 183.1,170.9 192.6,174.6 195.8,167.1 149.9,142.6 137.8,163.7 100.3,185.3 91.5,171.7 
		129.3,148.5 152.3,100.4 152.3,65.8 166.8,65.8 168.3,104.8 156.6,128.1 205.8,155 208.3,148.8 198.2,143 198.2,143 211.8,117.5 
		225.3,123.8 232.3,123.8 231.7,110.2 262.1,109.9 262.1,111.8 268.4,111.8 268.4,109.2 297.3,109.2 297.3,111.8 305.2,111.8 
		305.2,108.3 334.3,108.1 334.3,111.1 341,111.1 341,108.1 369.8,108.1 369.9,111.3 377,111.3 377,108 407,107.4 407,110.9 
		411.8,110.9 411.7,107.4 441.7,106.7 441.7,110.2 449,110.2 448.9,106.5 478.8,106.1 478.8,109.3 484.9,109.9 484.9,105.5 
		515.5,105.5 515.5,109.3 522.5,109.3 523.2,105.6 553,104.1 553.7,108 560.2,108.2 560.2,104.3 590.6,103.9 590.6,107.4 
		598.8,107.4 598.8,103.3 629.3,103 629.3,105.8 635.8,105.8 635.8,102.2 667.4,102.2 667.4,112.4 679.1,112.4 679.3,105.9 
		690.6,105.9 691.3,111.7 694.4,111.7 694.9,142.4 693.1,142.4 693.1,149.3 694.8,149.3 695.2,178.7 693.3,178.7 693.3,186.1 
		695.6,186.1 696.9,219 695.1,219 695.1,225.3 696.7,225.3 697.4,257.6 695.4,257.6 695.4,264.8 697.4,264.8 698,297.8 679.2,297.8 
		679.2,305.1 698.2,304.9 698.2,338.5 693.4,338.5 682,326.5 677.6,330.9 698.2,350.8 676.6,372.6 648.1,345.3 642.1,351.2 
		701.2,409.1 711,409.1 711.6,418.9 733.5,418.9 732.7,408.1 746.1,408.1 746.9,413.5 750.3,413.4 753.5,409.9 757.9,409.9 
		761.7,413.9 761.7,419.1 757.9,422.5 754.5,422.5 753.1,420.7 747.1,420.7 747.1,425.5 733.7,425.5 733.7,428.3 725.5,428.3 
		725.5,425.9 708.2,425.9 708.2,474 699.8,474 699.8,469.4 691.2,469 690.4,420.9 640.2,373.1 635.2,378.3 653.6,395.7 637.6,412.9 
		622.4,396.9 621.7,372.1 629.3,372.1 631.2,374.3 636.4,368.1 633.3,364.5 618.3,363.6 620,397.9 625.9,403.3 626.4,421.2 
		613.6,421.2 613.6,398.1 607.1,398.1 608.3,421.9 591.9,422.4 591.9,398.1 589.3,398.1 589.3,422.2 572.6,422.2 570.4,369 
		584.7,369 584.7,365.9 548.8,365.7 548.8,369.5 564.5,369.5 565.4,422.9 529.5,422.9 528.7,403.3 523.3,403.3 523.3,428.4 
		635.7,424.5 657.4,399.8 682.2,424.8 682.2,474 562.9,475.5 563.8,479.9 575.2,479.7 576.1,511 544.2,510.7 543.8,480.6 
		552.4,480.6 552.4,476.5 521.6,476.2 521.6,480.2 523.7,480.2 523.7,481.8 526.1,481.8 526.3,479.9 537,479.6 537,512 522.1,512.3 
		522.1,493.9 505.9,494.3 505.9,490.1 498,490.1 497.4,514.4 465.5,514.2 464.5,483.2 498.2,482.6 498.2,485.4 505.1,485.4 
		505.1,481.5 508,481.5 508,477.5 503.3,477.5 503.4,471.9 494.2,471.9 494.2,477.5 438.8,477.5 438.6,518.2 443.3,518.2 
		443.3,514.8 442,514.9 441.5,482.9 458.4,482.9 458.4,515.4 448.8,515.4 448.8,517.5 590.8,514.8 590.8,512.1 582.3,512 582,479 
		605.2,479 606.1,512.1 597.6,512.1 597.6,514.3 626.2,514.3 626.2,511.7 613.4,511.7 613.7,478.2 644.3,478.2 644.9,511.3 
		634,511.3 634,513.8 666,513.2 666,511.1 652.5,511.1 652.7,478.4 685.5,478.4 685.5,480.5 691.6,480.5 691.6,478.9 699.6,478.4 
		699.6,482.8 704.9,482.8 704.9,479.2 713.8,479.2 714.4,516.8 704.6,516.7 704.6,488.4 700,488.4 700,520 688.7,520.2 688.7,518.2 
		685.4,518.4 685.4,520 269.4,529.7 264,525.5 59.2,202 83.6,186 82.5,184 58.6,198.7 53.3,189.8 84.5,170.1 89.9,178.4 87.6,180.4 
		89.5,183 92.6,180.7 102,196.6 97,199.8 92.2,191.6 78.9,198.7 82.3,204.6 94.7,196.8 97,200.6 102.3,197.5 110,209 84.9,225.9 
		74.2,211.1 77.4,208.5 73.4,203 68.3,206.3 93.5,244.3 95.5,243 89,232.2 114,214.8 131.8,242.3 106.1,258.9 99.2,248.7 97,249.6 
		115.2,277.8 117,276.6 110.3,266.1 136.3,248.8 154.2,275.7 127.7,292.3 121,282.7 118.4,283.5 136.5,312.6 139.4,311.1 
		131.8,297.6 156.8,281.4 174.7,308.7 148.5,324.6 144.1,317.8 141.5,318.8 157.9,343.8 159.9,342.8 153.4,331.8 178.4,315.3 
		196.6,342.8 170.1,358.8 163.1,347.7 160.7,348.5 177,374.4 178.9,373.1 173.5,364 199.9,346.7 217,375.4 191.3,391.9 182,379.6 
		180.2,380.4 200.2,409.8 201.7,408.9 195.3,397.8 220.7,380.7 238.9,408 212.1,426.1 205.7,415.5 203.8,416.7 217.8,440.1 
		219.9,438 216.3,431.6 242.3,413.4 258,437.8 231.1,456.2 223.5,444.1 221.5,445.4 242.2,479.6 244.5,478 234.9,461.5 261,443.8 
		275,465.8 272.7,467.2 276.5,472.8 278.3,471.6 285.1,482.2 283,486.1 288.4,488.9 290.8,485.5 305.9,485.3 305.9,493.4 
		312.1,493.4 312.3,487.4 315,485.3 315,480.6 289.7,480.6 125,221.7 104.8,191.4 143.5,169.2 153.4,155 179.1,168.8 	"/>
	<polygon class="st0" points="225.4,195.6 218.9,200.5 227.1,212.3 213.3,222.1 216.9,228 236.1,216.1 243.2,226.5 245.3,224.8 	"/>
	<polygon class="st0" points="241,203 293.4,284.9 297,282.9 290.6,272.4 292.9,271.2 289.3,265 287.2,266.6 269,238.6 273.8,241 
		276.6,241 277.4,228 283.7,228 282.9,241.5 291.1,241.5 299.1,238.5 306.5,234.8 320.6,241.8 319.6,246.6 307.9,241.3 305.5,245.7 
		312.5,249 294.3,261.7 298.1,267.8 309.7,260.8 325.5,287.4 317.3,293 320.9,298.7 333.6,290.2 312.8,258.2 320.9,253.1 
		331.4,257.2 335.1,242.1 289.3,220.6 282.6,221.3 282.6,223.5 277.2,223.5 277.2,220.2 269.7,214.6 267.1,205.8 249.8,196.8 	"/>
	<polygon class="st0" points="297.8,290.6 300.9,288.9 307.1,299.3 311.6,296.5 315.4,302.4 309.9,305.6 315.4,316.1 342.2,299.5 
		342.2,285.2 339.3,287.5 335.1,281.2 342.2,276.8 342.2,262 337.1,260.2 337.9,257.5 342.2,260.3 342.2,251.5 339.7,250.5 
		340.7,244.2 362.2,253.9 362.2,257.8 349.4,253.3 350.7,358.7 363.2,358.7 363.2,361.1 342.6,361.1 335.1,349 337.5,349 
		342.8,358.3 343.8,358.3 343.8,331.4 331.8,339.8 333.7,342.8 331.8,343.6 322.9,331.1 324.7,330.1 327.3,333.7 342.8,323.3 
		342.2,304 318.8,318.9 321,323.1 318.4,324.6 	"/>
	<rect x="496.1" y="404" class="st0" width="7.7" height="9.7"/>
	<polygon class="st0" points="523.3,397.1 529.6,397.1 529.6,370.3 535.8,370.3 535.8,366.7 523.3,366.7 	"/>
	<polygon class="st0" points="534.6,358.6 522.1,359.2 524.8,337.1 531.4,337.1 530.2,356.4 534.6,356.8 	"/>
	<polygon class="st0" points="549.2,356.2 563.5,356.2 563.5,337.8 570.9,337.8 570.9,355.7 584.5,356.2 584.5,358.3 549.2,358.3 	
		"/>
	<polygon class="st0" points="590.4,355.5 590.4,358.3 612.7,357.5 611.8,312.5 608.5,309.7 604.7,314 605.7,355 	"/>
	<polygon class="st0" points="525.7,332 532.5,332 532.5,322.9 543.5,322.9 538.2,310.4 544.8,308 551.3,322.5 574.5,322.5 
		583.3,319.2 575.4,298.9 566.9,300.3 558.6,298.2 556.5,299.4 547.6,282.2 545.2,284.5 545.2,281 526.5,281 527.2,292.9 
		517.4,297.8 522.6,314.8 526.4,314 	"/>
	<polygon class="st0" points="526,274.7 526,265.7 534.2,265.7 535.6,266.6 537,265.7 537,263.9 538.5,262 535.3,262 525.2,255.7 
		525.2,238.9 513.7,238.9 513.7,236.1 525.2,236.1 523.9,211 530.9,211 532.2,250.3 535.6,250.3 544,241.6 545.9,241.6 545.9,245 
		559.7,240.2 558,235.2 564,235.2 563.2,211.9 570.9,211.9 570.9,232.3 573.5,235.1 570.4,252.3 572.8,259 552.5,267.5 551.1,265.8 
		550.4,268.3 547.4,274.1 530,273.5 527.8,274.7 	"/>
	<polygon class="st0" points="369.2,361.1 431.1,360.1 431.1,355.8 426.1,355.8 426.1,335.9 418.7,335.9 418.7,356.2 388.2,356.2 
		388.2,335.9 380.6,335.9 381.2,358 369.2,358.3 	"/>
	<polygon class="st0" points="380.7,329.6 388.2,329.6 387.3,288.2 398,288.2 398,272.7 400.1,269.7 394.2,266.6 388.2,274.8 
		387.3,264 369.8,256.2 367.9,260.6 379.8,266.4 	"/>
	<polygon class="st0" points="405.7,272.8 403.4,277.1 409.2,279.6 411.3,291.1 414.3,300.3 418.5,307.5 418.5,329.6 426.2,329.6 
		426.2,312.5 429.8,316.1 435.2,318.9 443,301.2 436.6,295.9 432.6,289.7 431.1,283.7 	"/>
	<polygon class="st0" points="448.4,302.6 440.5,321.4 441.8,323.2 441.6,337.9 444.5,337.9 444.5,322.6 448.4,323.2 456.3,323.2 
		456.3,348.5 464,348.5 464,321.9 491.2,321.7 492.3,333.4 498.8,333.4 496.9,314.1 478.5,306.3 473,310.8 467.7,305.3 471.8,302.6 
		465.3,299.9 460.8,302.1 455,302.9 	"/>
	<polygon class="st0" points="475.9,283.9 496.6,292.1 496.6,280.4 487.7,280.4 487.7,275.7 496,272.8 496,266.9 485.6,266.9 
		483.8,262.5 495.9,257.6 495.9,239.3 506.4,239.3 506.4,236 495.8,236 495.8,231 489,231 489.8,250.6 487.4,250.6 480.9,242.8 
		470.8,237.9 462.3,235.4 458.9,235.4 458.9,212.1 451.7,212.1 452.4,234.5 450.6,234.5 450.6,244.3 447.1,244.3 441.4,235.8 
		432.2,239.7 432.2,244.5 435.8,249.5 431.8,252.1 425.1,243.9 425.1,212.1 417.9,212.1 417.9,219.6 407.5,219.8 407.5,222.7 
		417.7,222.7 419.3,254 410,251.2 408.1,255.4 433.5,266.8 439.1,261.4 446.1,257.3 450.2,257.3 448.8,261.7 470,270.1 471.7,264 
		475.1,270 476.7,277.7 	"/>
	<polygon class="st0" points="493.7,340.3 500.1,340.3 502.6,359.2 437.9,360.1 437.9,356 456.4,355.9 456.4,353.7 463.6,353.7 
		463.6,357.3 495,357 	"/>
	<polygon class="st0" points="211.2,158.3 274.5,191.7 279.3,189 290.5,190 301.4,173.4 312.2,173.4 314.7,172 380,172 381.5,168.6 
		385.2,166.5 383.8,126.2 377.6,126.2 377.6,116.3 370.1,116.3 370.1,126.8 341,126.8 341,117.5 334.5,117.5 334.5,127.1 
		305.9,126.6 305.9,117.9 297.5,118 297.5,127.2 268.3,127.4 268.3,118.9 262.3,118.9 262.3,128 225.8,129 	"/>
	<polygon class="st0" points="392,126.8 393,166.4 394.8,167.8 396.3,171.3 610.5,166.5 609.6,121.6 599,121.6 599,113.6 
		591.2,113.6 591.4,122.1 560.4,122.5 560.4,113.6 553.9,113.6 554.1,122.8 523.4,123.6 522.8,115.1 516.4,115.1 516.4,123.9 
		485.2,124.5 485.2,115.8 479.3,115.7 478.9,125 449.5,125 449.4,116.1 441.9,116.1 442.1,125 412.3,125.7 412.3,116.4 406.5,116.4 
		406.5,126.3 	"/>
	<polygon class="st0" points="614.9,121.4 617.3,235.9 618.9,237 619.6,270.6 622.5,273.3 624.6,278.1 624.6,283.2 622.1,287.1 
		619.7,288.1 619.7,302.3 622.4,302.3 622.5,294 636.9,307.9 641,303.8 633.5,297.2 637.8,292.6 651,305.6 630.6,327.4 622.7,321.1 
		622.7,308.7 619.2,308.4 620.4,331 637.3,347 643.4,340.7 632.1,329.1 652.9,307.8 667.4,321.2 671.6,316.7 670.8,305.3 
		673.9,305.3 673.9,297.6 671,297.8 670.5,265.4 689.4,265.3 689.4,258.4 671,258.4 670.7,225.1 688.5,225.1 688.5,218.7 
		669.9,218.7 668.5,185.9 687.5,185.7 687.5,179.4 669.5,179.4 676.3,149.3 688,149.3 687.5,142.5 676,142.5 675,116.7 667.3,116.7 
		667.3,120.4 636.9,120.7 636.4,111.4 629.6,111.4 629.8,120.7 	"/>
	<polygon class="st0" points="581,296 589.4,316.4 600.9,307.8 605.7,301.9 611.8,288.9 606.7,285.5 604.7,279.4 607.5,273.4 
		612.7,270.6 611,260.8 602.4,245.5 598.2,242.8 583.3,258.9 589.7,265.8 590.2,270 594,268.3 595.1,274 596.9,276.9 590.2,279.6 
		587.3,288.9 	"/>
	<polygon class="st0" points="576.7,254.3 581,255.6 590.3,241.5 590.9,234 603.3,234 603.3,236.1 608.4,240.5 612.7,235.4 
		611.3,232.8 609.9,172.9 550.6,174 550.6,178.5 561.4,178.5 561.4,180.8 569.7,180.8 569.7,178.5 603.2,178.1 604.6,231.7 
		587.8,231.7 587.6,239.9 584.6,237.5 581.7,237.5 	"/>
	<rect x="562.7" y="195.1" class="st0" width="7.1" height="10.4"/>
	<polygon class="st0" points="523.4,191.5 523.4,205.5 530.2,205.5 530.2,191 	"/>
	<polygon class="st0" points="542.6,174.9 542.6,179 530.2,179 530.2,184.7 523.4,184.7 523.4,179.8 499.6,179.8 499.6,178.2 
		493.8,178.2 494.9,205.5 487.8,205.5 487.8,179.2 457.7,179.9 457.7,184 449.8,184 449.8,180 423.7,180.9 423.7,184.7 417.1,184.8 
		417.1,180.9 402.3,181.2 402.3,177.9 	"/>
	<polygon class="st0" points="295.4,192.7 299,198.5 318.6,194.8 317.6,188.9 312.3,181.9 341.9,181.9 341.9,211.8 348.7,211.3 
		348.7,210.1 361.2,210.1 361.2,207.9 348.7,207.9 348.7,181.9 378.7,181.9 379.4,207.9 367.9,207.9 367.9,210 379.4,210 
		380.2,238.1 367.9,232.7 366.1,236.6 387.3,246.4 385.2,184.1 382,181.9 379.1,178.3 304.9,178.3 	"/>
	<polygon class="st0" points="299.3,207.1 341.4,226.1 346.7,226.1 350,229.9 359.5,234 361.4,230 348.6,224.4 348.6,217.6 
		342.4,217.6 342.4,219.5 319.6,209.4 319.6,200.6 299.3,204 	"/>
	<polygon class="st0" points="401.5,252.7 392.9,249 390.7,184.6 393.6,182.8 396.6,178.3 397.9,178.3 397.9,181.6 396.1,181.6 
		394.1,183.7 394.7,219.7 402.8,220.1 402.8,222.9 394.5,222.9 395.7,244.8 402.3,248.5 	"/>
	<rect x="417.5" y="191.7" class="st0" width="6.8" height="15"/>
	<polygon class="st0" points="451,190.2 451.8,206.8 458.1,206.8 458.1,190.2 	"/>
	<polygon class="st0" points="488.2,211.5 488.8,225.3 495.8,225.3 495.8,211.5 	"/>
	<polygon class="st0" points="175.9,74.6 177,107.4 168,124.4 195.7,139.4 214.1,107 698.3,97.9 703.9,349.8 736.9,349.8 738,399 
		757.8,398.5 749.9,46.2 176.3,57.7 	"/>
</g>
<g id="Layer_3">
	<g>
		<circle class="st1" cx="206.4" cy="170.5" r="4.1"/>
	</g>
	<g>
		<circle class="st1" cx="229.3" cy="197.6" r="4.1"/>
	</g>
	<g>
		<circle class="st1" cx="288.1" cy="310.8" r="4.1"/>
	</g>
	<g>
		<circle class="st1" cx="345.1" cy="368" r="4.1"/>
	</g>
	<g>
		<circle class="st1" cx="378.9" cy="380.6" r="4.1"/>
	</g>
	<g>
		<circle class="st1" cx="467" cy="365.1" r="4.1"/>
	</g>
	<g>
		<circle class="st1" cx="416.3" cy="315.9" r="4.1"/>
	</g>
	<g>
		<circle class="st1" cx="533.5" cy="199.1" r="4.1"/>
	</g>
	<g>
		<circle class="st1" cx="349.1" cy="232.1" r="4.1"/>
	</g>
	<g>
		<circle class="st1" cx="346.6" cy="244.7" r="4.1"/>
	</g>
	<g>
		<circle class="st1" cx="340.4" cy="253.8" r="4.1"/>
	</g>
	<g>
		<circle class="st1" cx="377.4" cy="282" r="4.1"/>
	</g>
	<g>
		<circle class="st1" cx="352.5" cy="281.4" r="4.1"/>
	</g>
	<g>
		<circle class="st1" cx="352.7" cy="332.9" r="4.1"/>
	</g>
</g>
</svg>
